<mxfile host="app.diagrams.net" agent="Mozilla/5.0 (Windows NT 10.0; Win64; x64) AppleWebKit/537.36 (KHTML, like Gecko) Chrome/131.0.0.0 Safari/537.36" version="26.0.1">
  <diagram name="Integrated System Relationships" id="cV3sKzwQuMIi0W9DKhRD">
    <mxGraphModel dx="1221" dy="725" grid="1" gridSize="10" guides="1" tooltips="1" connect="1" arrows="1" fold="1" page="1" pageScale="1" pageWidth="827" pageHeight="1169" math="0" shadow="0">
      <root>
        <mxCell id="0" />
        <mxCell id="1" parent="0" />
        <mxCell id="wpcjDuDs54A-yuHA8lGh-43" value="Sales Order Processing System" style="rounded=1;whiteSpace=wrap;html=1;fillColor=#d5e8d4;strokeColor=#82b366;" vertex="1" parent="1">
          <mxGeometry x="100" y="100" width="200" height="100" as="geometry" />
        </mxCell>
        <mxCell id="wpcjDuDs54A-yuHA8lGh-44" value="Production System" style="rounded=1;whiteSpace=wrap;html=1;fillColor=#ffe6cc;strokeColor=#d6b656;" vertex="1" parent="1">
          <mxGeometry x="400" y="100" width="200" height="100" as="geometry" />
        </mxCell>
        <mxCell id="wpcjDuDs54A-yuHA8lGh-45" value="Delivery System" style="rounded=1;whiteSpace=wrap;html=1;fillColor=#f8cecc;strokeColor=#b85450;" vertex="1" parent="1">
          <mxGeometry x="700" y="100" width="200" height="100" as="geometry" />
        </mxCell>
        <mxCell id="wpcjDuDs54A-yuHA8lGh-46" value="Inventory Control System" style="rounded=1;whiteSpace=wrap;html=1;fillColor=#e1d5e7;strokeColor=#9673a6;" vertex="1" parent="1">
          <mxGeometry x="250" y="300" width="200" height="100" as="geometry" />
        </mxCell>
        <mxCell id="wpcjDuDs54A-yuHA8lGh-47" value="Purchase Order Processing System" style="rounded=1;whiteSpace=wrap;html=1;fillColor=#d5e8d4;strokeColor=#82b366;" vertex="1" parent="1">
          <mxGeometry x="550" y="300" width="210" height="100" as="geometry" />
        </mxCell>
        <mxCell id="wpcjDuDs54A-yuHA8lGh-48" value="" style="edgeStyle=orthogonalEdgeStyle;rounded=1;strokeColor=#82b366;" edge="1" parent="1" source="wpcjDuDs54A-yuHA8lGh-43" target="wpcjDuDs54A-yuHA8lGh-44">
          <mxGeometry y="20" relative="1" as="geometry">
            <mxPoint as="offset" />
          </mxGeometry>
        </mxCell>
        <mxCell id="wpcjDuDs54A-yuHA8lGh-49" value="" style="edgeStyle=orthogonalEdgeStyle;rounded=1;strokeColor=#b85450;" edge="1" parent="1" source="wpcjDuDs54A-yuHA8lGh-44" target="wpcjDuDs54A-yuHA8lGh-45">
          <mxGeometry y="-30" relative="1" as="geometry">
            <Array as="points">
              <mxPoint x="640" y="140" />
              <mxPoint x="640" y="140" />
            </Array>
            <mxPoint as="offset" />
          </mxGeometry>
        </mxCell>
        <mxCell id="wpcjDuDs54A-yuHA8lGh-50" value="" style="edgeStyle=orthogonalEdgeStyle;rounded=1;strokeColor=#9673a6;" edge="1" parent="1" source="wpcjDuDs54A-yuHA8lGh-44" target="wpcjDuDs54A-yuHA8lGh-46">
          <mxGeometry x="0.36" y="-40" relative="1" as="geometry">
            <mxPoint as="offset" />
          </mxGeometry>
        </mxCell>
        <mxCell id="wpcjDuDs54A-yuHA8lGh-51" value="" style="edgeStyle=orthogonalEdgeStyle;rounded=1;strokeColor=#9673a6;" edge="1" parent="1" source="wpcjDuDs54A-yuHA8lGh-46" target="wpcjDuDs54A-yuHA8lGh-47">
          <mxGeometry y="-40" relative="1" as="geometry">
            <mxPoint as="offset" />
          </mxGeometry>
        </mxCell>
        <mxCell id="wpcjDuDs54A-yuHA8lGh-52" value="" style="edgeStyle=orthogonalEdgeStyle;rounded=1;strokeColor=#82b366;" edge="1" parent="1" source="wpcjDuDs54A-yuHA8lGh-47" target="wpcjDuDs54A-yuHA8lGh-43">
          <mxGeometry x="-0.1852" y="60" relative="1" as="geometry">
            <Array as="points">
              <mxPoint x="650" y="480" />
              <mxPoint x="200" y="480" />
            </Array>
            <mxPoint as="offset" />
          </mxGeometry>
        </mxCell>
        <mxCell id="wpcjDuDs54A-yuHA8lGh-53" value="Orders" style="text;html=1;align=center;verticalAlign=middle;strokeColor=none;fillColor=none;" vertex="1" parent="1">
          <mxGeometry x="300" y="80" width="100" height="20" as="geometry" />
        </mxCell>
        <mxCell id="wpcjDuDs54A-yuHA8lGh-54" value="Schedules" style="text;html=1;align=center;verticalAlign=middle;strokeColor=none;fillColor=none;" vertex="1" parent="1">
          <mxGeometry x="600" y="80" width="100" height="20" as="geometry" />
        </mxCell>
        <mxCell id="wpcjDuDs54A-yuHA8lGh-55" value="Stock" style="text;html=1;align=center;verticalAlign=middle;strokeColor=none;fillColor=none;" vertex="1" parent="1">
          <mxGeometry x="350" y="380" width="100" height="20" as="geometry" />
        </mxCell>
        <mxCell id="wpcjDuDs54A-yuHA8lGh-56" value="Procurement" style="text;html=1;align=center;verticalAlign=middle;strokeColor=none;fillColor=none;" vertex="1" parent="1">
          <mxGeometry x="650" y="380" width="100" height="20" as="geometry" />
        </mxCell>
        <mxCell id="wpcjDuDs54A-yuHA8lGh-57" value="&lt;span style=&quot;font-size: 11px; text-wrap-mode: nowrap; background-color: rgb(255, 255, 255);&quot;&gt;Send Orders&lt;/span&gt;" style="text;html=1;align=center;verticalAlign=middle;whiteSpace=wrap;rounded=0;" vertex="1" parent="1">
          <mxGeometry x="320" y="120" width="60" height="30" as="geometry" />
        </mxCell>
        <mxCell id="wpcjDuDs54A-yuHA8lGh-58" value="&lt;span style=&quot;font-size: 11px; text-wrap-mode: nowrap; background-color: rgb(255, 255, 255);&quot;&gt;Send Schedule&lt;/span&gt;" style="text;html=1;align=center;verticalAlign=middle;whiteSpace=wrap;rounded=0;" vertex="1" parent="1">
          <mxGeometry x="620" y="116" width="60" height="30" as="geometry" />
        </mxCell>
        <mxCell id="wpcjDuDs54A-yuHA8lGh-59" value="&lt;span style=&quot;font-size: 11px; text-wrap-mode: nowrap; background-color: rgb(255, 255, 255);&quot;&gt;Update Stock&lt;/span&gt;" style="text;html=1;align=center;verticalAlign=middle;whiteSpace=wrap;rounded=0;" vertex="1" parent="1">
          <mxGeometry x="400" y="220" width="60" height="30" as="geometry" />
        </mxCell>
        <mxCell id="wpcjDuDs54A-yuHA8lGh-60" value="&lt;span style=&quot;font-size: 11px; text-wrap-mode: nowrap; background-color: rgb(255, 255, 255);&quot;&gt;Request Items&lt;/span&gt;" style="text;html=1;align=center;verticalAlign=middle;whiteSpace=wrap;rounded=0;" vertex="1" parent="1">
          <mxGeometry x="470" y="320" width="60" height="30" as="geometry" />
        </mxCell>
        <mxCell id="wpcjDuDs54A-yuHA8lGh-61" value="&lt;span style=&quot;font-size: 11px; text-wrap-mode: nowrap; background-color: rgb(255, 255, 255);&quot;&gt;Update Orders&lt;/span&gt;" style="text;html=1;align=center;verticalAlign=middle;whiteSpace=wrap;rounded=0;" vertex="1" parent="1">
          <mxGeometry x="300" y="450" width="60" height="30" as="geometry" />
        </mxCell>
      </root>
    </mxGraphModel>
  </diagram>
</mxfile>
